#File written by LIBUNFOLD3D. Compilation :Oct 26 2011,14:21:15

#begin vertices
v 0.378195 -6.4463350000000004 1.039334
v 0.57588799999999996 4.365367 1.515914
v 4.9800829999999996 -6.7168460000000003 1.0468139999999999
v 0.56995600000000002 4.1147080000000003 -3.2903419999999999
v -2.681562 4.5076580000000002 0.38302900000000001
v 0.24691399999999999 5.1587719999999999 5.485697
v 4.061242 4.5202349999999996 0.64856400000000003
v 5.7018529999999998 3.1016590000000002 -4.0115259999999999
v 7.8080429999999996 3.379264 0.021000999999999999
v 5.3338419999999998 3.3268279999999999 6.67943
v -0.077431 3.9014989999999998 8.8859580000000005
v -5.5303829999999996 4.3998720000000002 5.7795899999999998
v -5.6405419999999999 3.0469499999999998 -0.20787800000000001
v -3.6972659999999999 2.2540770000000001 -3.8166380000000002
v -0.26272099999999998 2.4979070000000001 -6.4577479999999996
v -0.94087699999999996 -4.9895110000000003 -7.4607049999999999
v 5.9862640000000003 -4.8478060000000003 -3.9130029999999998
v -5.1735230000000003 -5.2662329999999997 -5.1505999999999998
v -7.1124869999999998 -4.777107 -1.0092639999999999
v -6.7380139999999997 -3.515933 5.5952719999999996
v -0.094619999999999996 -3.8189139999999999 9.1380669999999995
v 6.15733 -4.686369 7.5147050000000002
v 8.7579969999999996 -4.9070070000000001 0.90747800000000001
v -0.43785400000000002 -6.854349 -4.331175
v -4.1197350000000004 -6.6044429999999998 -0.71616800000000003
v 0.24596199999999999 -5.883051 5.8282150000000001
v -3.6387309999999999 -6.9234790000000004 -3.7451059999999998
v -4.3968910000000001 -5.7040150000000001 4.1735230000000003
v 4.3651429999999998 -6.4325530000000004 5.7389210000000004
v 4.0992199999999999 -6.7986149999999999 -2.9026070000000002
v -2.0277440000000002 4.149686 -2.3668580000000001
v -3.2402730000000002 5.4872030000000001 4.5270489999999999
v 3.4652310000000002 4.9586379999999997 4.8226380000000004
v 3.948874 4.532756 -2.8055690000000002
v 7.1789579999999997 3.2632859999999999 -1.7403090000000001
v 7.5538930000000004 3.4051930000000001 3.8367469999999999
v 2.6425610000000002 3.5293869999999998 8.2883189999999995
v -3.4995449999999999 4.3635469999999996 7.9225099999999999
v -6.322565 3.9376310000000001 2.9248289999999999
v -4.8690800000000003 2.5209280000000001 -2.325812
v -2.3303579999999999 2.2443390000000001 -5.2160570000000002
v 3.2139340000000001 2.8297949999999998 -5.6967499999999998
v 2.8880849999999998 -4.8908189999999996 -6.1150190000000002
v -3.5075120000000002 -5.1656380000000004 -6.5190359999999998
v -6.4102499999999996 -5.1783570000000001 -3.461004
v -7.683878 -4.0304039999999999 2.4992899999999998
v -4.2876289999999999 -3.401942 7.8891039999999997
v 3.1593789999999999 -4.2920819999999997 8.8279160000000001
v 8.4737279999999995 -4.9070559999999999 4.9448189999999999
v 7.9590990000000001 -4.855181 -1.1881269999999999
#end vertices

#begin 74 textures vertices 
vt 0.56889945978388401 0.58858055750119576 0
vt 0.50863042884643983 0.17496390057583397 0
vt 0.66956147513737085 0.65148385754504612 0
vt 0.64214881886835962 0.50043951011534327 0
vt 0.4685079192766749 0.52053988177514743 0
vt 0.51902501901553277 0.67855361906475975 0
vt 0.55754769929225401 0.10009592621697004 0
vt 0.58897838713257744 0.23227758912668847 0
vt 0.45489105333860502 0.246770708662786 0
vt 0.43711479457056324 0.1011489391251869 0
vt 0.36891567277605414 0.12587532109314103 0
vt 0.36996567469360908 0.24414088965910508 0
vt 0.47712719246568402 0.31018635240239917 0
vt 0.58864674630828329 0.29109686053609446 0
vt 0.65450592470616697 0.20562898153320372 0
vt 0.62215434208360609 0.091360960492134088 0
vt 0.5648790125148927 0.034207498329693144 0
vt 0.44676956348896335 0.034827275323329077 0
vt 0.5571003436253793 0.74578904036636484 0
vt 0.68981959696904216 0.71114380847634173 0
vt 0.72964385465305825 0.62789020500735027 0
vt 0.71985115308613157 0.49526866213110576 0
vt 0.61754424451329015 0.42742552219057822 0
vt 0.47826988480876176 0.45272930523599603 0
vt 0.3871018712841422 0.54342552912728159 0
vt 0.42593480205364914 0.66984085500034041 0
vt 0.61310489107012311 0.68205123794930667 0
vt 0.66392811135409535 0.59297162390953795 0
vt 0.54641664193679551 0.50339393228870033 0
vt 0.47957440998275702 0.61019016413558169 0
vt 0.50409693862024718 0.08413353207663346 0
vt 0.57528113620167098 0.15265000735076051 0
vt 0.51880136585498293 0.24713760124350431 0
vt 0.436991644645779 0.16767883326129954 0
vt 0.1835057072442918 0.29727407952240925 0
vt 0.35961370812195026 0.16406368547785474 0
vt 0.4180642603753808 0.3041934812706158 0
vt 0.52789526640668816 0.30719680639350694 0
vt 0.63924201018739568 0.26992991376994691 0
vt 0.63905721499797785 0.13657492503030572 0
vt 0.5965676162569763 0.060186114181059673 0
vt 0.51857867269688529 0.01485937500000045 0
vt 0.64335612812369569 0.74576791915499696 0
vt 0.16730501967139258 0.45258404626315951 0
vt 0.71499078353962497 0.67133818577014948 0
vt 0.72932436546893498 0.5724182324305227 0
vt 0.67835473889621811 0.43466403529229569 0
vt 0.53614557485135461 0.43695511700027501 0
vt 0.42215388537061965 0.4752218773705455 0
vt 0.40073081790918946 0.62891860582351178 0
vt 0.48013572466955334 0.71737721307970292 0
vt 0.23242758258464166 0.46204545969125016 0
vt 0.27580790059391924 0.46894645818642733 0
vt 0.35464409133540409 0.47727994153037856 0
vt 0.74181987625435208 0.43112757356880504 0
vt 0.81248232003937304 0.42711649875827384 0
vt 0.86253890574682901 0.42109699260016875 0
vt 0.90155827843368597 0.40856655166770045 0
vt 0.93941968732278447 0.38988590201832141 0
vt 0.01485937500000045 0.43324715854502899 0
vt 0.98514062500000021 0.3619664461782407 0
vt 0.0936327684770277 0.44282984829847827 0
vt 0.92204954188377919 0.2273675919104006 0
vt 0.054867132331078157 0.29030403585608688 0
vt 0.1246026693676895 0.29446043521792753 0
vt 0.39625957966517023 0.074859720219467019 0
vt 0.84610273443605877 0.26616648506560803 0
vt 0.88165688209951787 0.25215220157140467 0
vt 0.76420880460576035 0.27592394767334927 0
vt 0.80951620437777638 0.2740554332885447 0
vt 0.69872964951496175 0.2729227043063488 0
vt 0.27297409894896874 0.3027099104458249 0
vt 0.34752828322002999 0.30675449996715015 0
vt 0.23640911210660528 0.30093157036685464 0
#end 74 textures vertices 

#begin 50 normals 
vn 0.69184999999999997 -0.18404000000000001 -0.69819200000000003
vn 0.40432899999999999 -0.244173 -0.88141800000000003
vn 0.38227 0.27576000000000001 -0.88194499999999998
vn 0.68235400000000002 0.1963 -0.70417200000000002
vn -0.011140000000000001 -0.195631 -0.98061399999999999
vn -0.015546000000000001 0.33487899999999998 -0.942133
vn -0.51081200000000004 -0.14532800000000001 -0.84731999999999996
vn -0.49985600000000002 0.41104800000000002 -0.76235399999999998
vn -0.73094099999999995 -0.019116000000000001 -0.68217300000000003
vn -0.67198599999999997 0.38403500000000002 -0.63320799999999999
vn -0.89364200000000005 -0.130442 -0.42940600000000001
vn -0.79390799999999995 0.41689300000000001 -0.44261899999999998
vn -0.95655299999999999 -0.22764999999999999 -0.18215700000000001
vn -0.84771799999999997 0.44011600000000001 -0.29609400000000002
vn -0.98085199999999995 -0.18845300000000001 0.049132000000000002
vn -0.90156499999999995 0.43167 -0.029007999999999999
vn -0.85287800000000002 -0.14340800000000001 0.50202899999999995
vn -0.81317600000000001 0.32841399999999998 0.48050999999999999
vn -0.474719 -0.26974599999999999 0.83778200000000003
vn -0.43182199999999998 0.33677099999999999 0.83672800000000003
vn -0.12337099999999999 -0.30828800000000001 0.94325899999999996
vn -0.064241000000000006 0.32420900000000002 0.94380200000000003
vn 0.26331599999999999 -0.24925600000000001 0.93195300000000003
vn 0.31961299999999998 0.34627400000000003 0.88200999999999996
vn 0.62054699999999996 -0.110622 0.77632800000000002
vn 0.60794099999999995 0.33623500000000001 0.71927300000000005
vn 0.90655799999999997 -0.228794 0.35469099999999998
vn 0.862483 0.41467199999999999 0.29012199999999999
vn 0.94986099999999996 -0.30925599999999998 -0.046105
vn 0.89872099999999999 0.43094399999999999 -0.081166000000000002
vn 0.84656299999999995 -0.30855399999999999 -0.43373499999999998
vn 0.82755800000000002 0.34063900000000003 -0.44622099999999998
vn -0.17838699999999999 -0.97513300000000003 -0.13150800000000001
vn 0.041294999999999998 -0.97148800000000002 -0.23346500000000001
vn -0.049970000000000001 -0.99395 0.097806000000000004
vn -0.23142799999999999 -0.96765299999999999 0.10044500000000001
vn -0.27096599999999998 -0.92119099999999998 0.279256
vn -0.1231 -0.93962599999999996 0.31929600000000002
vn 0.110289 -0.96131900000000003 0.25239200000000001
vn 0.173904 -0.98417500000000002 0.034019000000000001
vn 0.19628499999999999 -0.960484 -0.19733700000000001
vn 0.018356000000000001 0.99170899999999995 -0.12718399999999999
vn -0.074853000000000003 0.95833400000000002 -0.27566800000000002
vn -0.200074 0.94314500000000001 -0.26541999999999999
vn -0.14044899999999999 0.96599299999999999 -0.21709999999999999
vn -0.104953 0.99419199999999996 -0.023834000000000001
vn 0.076308000000000001 0.991116 0.108933
vn 0.197712 0.97450099999999995 0.106099
vn 0.14022799999999999 0.98854699999999995 -0.055767999999999998
vn 0.10654 0.96795699999999996 -0.22739400000000001
#end 50 normals 

#begin 48 faces
g Deco_Rock_03
s 1
f 17/44/1 43/62/2 42/65/3 8/35/4 
f 43/62/2 16/60/5 15/64/6 42/65/3 
f 15/63/6 16/61/5 44/59/7 41/68/8 
f 44/59/7 18/58/9 14/67/10 41/68/8 
f 14/67/10 18/58/9 45/57/11 40/70/12 
f 45/57/11 19/56/13 13/69/14 40/70/12 
f 13/69/14 19/56/13 46/55/15 39/71/16 
f 46/55/15 20/47/17 12/39/18 39/71/16 
f 12/39/18 20/47/17 47/23/19 38/14/20 
f 47/23/19 21/48/21 11/38/22 38/14/20 
f 11/38/22 21/48/21 48/24/23 37/13/24 
f 48/24/23 22/49/25 10/37/26 37/13/24 
f 10/37/26 22/49/25 49/54/27 36/73/28 
f 49/54/27 23/53/29 9/72/30 36/73/28 
f 9/72/30 23/53/29 50/52/31 35/74/32 
f 50/52/31 17/44/1 8/35/4 35/74/32 
f 27/3/33 24/27/34 1/1/35 25/28/36 
f 28/4/37 25/28/36 1/1/35 26/29/38 
f 29/5/39 26/29/38 1/1/35 3/30/40 
f 30/6/41 3/30/40 1/1/35 24/27/34 
f 2/2/42 4/31/43 31/7/44 5/32/45 
f 31/7/44 4/31/43 15/42/6 41/17/8 
f 31/7/44 41/17/8 14/41/10 40/16/12 
f 5/32/45 31/7/44 40/16/12 13/40/14 
f 2/2/42 5/32/45 32/8/46 6/33/47 
f 32/8/46 5/32/45 13/40/14 39/15/16 
f 32/8/46 39/15/16 12/39/18 38/14/20 
f 6/33/47 32/8/46 38/14/20 11/38/22 
f 2/2/42 6/33/47 33/9/48 7/34/49 
f 33/9/48 6/33/47 11/38/22 37/13/24 
f 33/9/48 37/13/24 10/37/26 36/12/28 
f 7/34/49 33/9/48 36/12/28 9/36/30 
f 2/2/42 7/34/49 34/10/50 4/31/43 
f 34/10/50 7/34/49 9/36/30 35/11/32 
f 4/31/43 34/10/50 42/18/3 15/42/6 
f 34/10/50 35/11/32 8/66/4 42/18/3 
f 16/43/5 43/19/2 30/6/41 24/27/34 
f 27/3/33 44/20/7 16/43/5 24/27/34 
f 18/45/9 44/20/7 27/3/33 45/21/11 
f 19/46/13 45/21/11 27/3/33 25/28/36 
f 28/4/37 46/22/15 19/46/13 25/28/36 
f 20/47/17 46/22/15 28/4/37 47/23/19 
f 21/48/21 47/23/19 28/4/37 26/29/38 
f 29/5/39 48/24/23 21/48/21 26/29/38 
f 22/49/25 48/24/23 29/5/39 49/25/27 
f 23/50/29 49/25/27 29/5/39 3/30/40 
f 30/6/41 50/26/31 23/50/29 3/30/40 
f 17/51/1 50/26/31 30/6/41 43/19/2 
#end 48 faces
#begin 1 properties
#U3D SYM 0 0 0 1 0 0 0.0001 0
#end 1 properties
