#File written by LIBUNFOLD3D. Compilation :Oct 26 2011,14:21:15

#begin vertices
v -0.28653000000000001 -7.0169309999999996 0.143265
v -0.28653000000000001 7.0137179999999999 0.143265
v 5.1114329999999999 -7.0169309999999996 0.095509999999999998
v 0 7.0137179999999999 -8.4542800000000007
v -5.732246 7.0137179999999999 -2.1489739999999999
v -0.26848899999999998 7.0137179999999999 7.49918
v 5.1114329999999999 7.0137179999999999 0.095509999999999998
v 7.026052 4.9310419999999997 -7.4916729999999996
v 9.7453160000000008 4.9310419999999997 0.38203999999999999
v 7.799849 4.9310419999999997 9.8108210000000007
v -0.26848899999999998 4.9310419999999997 12.133063999999999
v -9.3782650000000007 4.9310419999999997 7.3849159999999996
v -10.366128 4.9310419999999997 -2.1489739999999999
v -6.2529539999999999 4.9310419999999997 -9.2151680000000002
v 0 4.9310419999999997 -13.088160999999999
v 0 -4.9342540000000001 -13.088160999999999
v 7.026052 -4.9342540000000001 -7.4916729999999996
v -6.2529539999999999 -4.9342540000000001 -9.2151680000000002
v -10.366128 -4.9342540000000001 -2.1489739999999999
v -9.3782650000000007 -4.9342540000000001 7.3849159999999996
v -0.26848899999999998 -4.9342540000000001 12.133063999999999
v 7.799849 -4.9342540000000001 9.8108210000000007
v 9.7453160000000008 -4.9342540000000001 0.38203999999999999
v 0 -7.0169309999999996 -8.4542800000000007
v -5.732246 -7.0169309999999996 -2.1489739999999999
v -0.26848899999999998 -7.0169309999999996 7.49918
v -4.268465 -7.0169309999999996 -7.0911520000000001
v -6.2542049999999998 -7.0169309999999996 5.4144730000000001
v 4.8440519999999996 -7.0169309999999996 7.1980750000000002
v 4.8678249999999998 -7.0169309999999996 -6.1987030000000001
v -4.268465 7.0137179999999999 -7.0911520000000001
v -6.2542049999999998 7.0137179999999999 5.4144730000000001
v 4.8440519999999996 7.0137179999999999 7.1980750000000002
v 4.8678249999999998 7.0137179999999999 -6.1987030000000001
v 8.7600079999999991 4.9310419999999997 -2.9248099999999999
v 10.300882 4.9310419999999997 6.2099460000000004
v 3.978186 4.9310419999999997 11.655882999999999
v -5.8055149999999998 4.9310419999999997 10.505234
v -11.126833 4.9310419999999997 3.1202670000000001
v -8.7230019999999993 4.9310419999999997 -6.1946089999999998
v -3.4626619999999999 4.9310419999999997 -11.590778
v 4.229705 4.9310419999999997 -11.149682
v 4.229705 -4.9342540000000001 -11.149682
v -3.4626619999999999 -4.9342540000000001 -11.590778
v -8.7230019999999993 -4.9342540000000001 -6.1946089999999998
v -11.126833 -4.9342540000000001 3.1202670000000001
v -5.8055149999999998 -4.9342540000000001 10.505234
v 3.978186 -4.9342540000000001 11.655882999999999
v 10.300882 -4.9342540000000001 6.2099460000000004
v 8.7600079999999991 -4.9342540000000001 -2.9248099999999999
#end vertices

#begin 74 textures vertices 
vt 0.52357323058025873 0.6137876486053947 0
vt 0.52286378249520438 0.19524541850922542 0
vt 0.59190126047596925 0.69939982190420336 0
vt 0.59564116885468199 0.52903490848494794 0
vt 0.44044431409369772 0.52688669220593998 0
vt 0.46481710830890327 0.70447664496613982 0
vt 0.59097374045727058 0.10947241855570328 0
vt 0.59427243024686438 0.27969653241424647 0
vt 0.44064156002808702 0.28221557582945161 0
vt 0.46425564306938766 0.10450068963286581 0
vt 0.395917473626341 0.14082970870080072 0
vt 0.36257292613174869 0.27348143656017232 0
vt 0.44782061857567573 0.34235760290790701 0
vt 0.5755263813383823 0.34306613024019594 0
vt 0.66991216845692225 0.27036569614109923 0
vt 0.65769101059740198 0.12938607936618765 0
vt 0.59163850406784901 0.041087921257321268 0
vt 0.47930710613595878 0.032415133841324405 0
vt 0.479976574656998 0.77652748430797747 0
vt 0.59246816212547437 0.7678176062489187 0
vt 0.65875311300647199 0.67943569415165084 0
vt 0.67164151081993195 0.53815153821015338 0
vt 0.57411596711955404 0.46593588940817704 0
vt 0.44948432251127407 0.46687456831870749 0
vt 0.36194265413788967 0.53551397339814688 0
vt 0.39623535887246891 0.66817057989242645 0
vt 0.53584645329981351 0.72654195598278071 0
vt 0.60408803694973623 0.63039295581599297 0
vt 0.50981750283432814 0.52185203877162212 0
vt 0.44764798321108656 0.62131039124980081 0
vt 0.535079777706985 0.082385769455335947 0
vt 0.60299739622527149 0.17841927589301354 0
vt 0.50945570881766866 0.28746293558377922 0
vt 0.44735356488193168 0.18770201873228465 0
vt 0.14379569935982456 0.33163971302536943 0
vt 0.37762346342573899 0.18840988529715197 0
vt 0.39616470058824471 0.33166736947190872 0
vt 0.50229131692436146 0.34672379579213297 0
vt 0.63270937565690899 0.33085438453157329 0
vt 0.67144610614409195 0.19201910578205986 0
vt 0.62831107357460969 0.080103369009110498 0
vt 0.54402448068858789 0.01485937500000045 0
vt 0.54478006075106733 0.79406400913894737 0
vt 0.14087473106574985 0.46623637332047085 0
vt 0.6292357755353426 0.72877397659963827 0
vt 0.67271767188018305 0.61671419026446561 0
vt 0.63576323634993126 0.47753260416167492 0
vt 0.5024791049418228 0.46257197929068516 0
vt 0.39415679450863805 0.47730378992018491 0
vt 0.37769289363930997 0.62060652823666529 0
vt 0.43053973280232549 0.73110316647033879 0
vt 0.20738808832328101 0.4679305296456448 0
vt 0.25438728690295681 0.46935888796298075 0
vt 0.33420570268210043 0.4726641286334855 0
vt 0.69876840023149633 0.47195294917091646 0
vt 0.77134001376053751 0.46821614607586104 0
vt 0.83080360535935949 0.46593799961467447 0
vt 0.88392004797054613 0.46416070062157483 0
vt 0.93379789222046927 0.46259862296688742 0
vt 0.01485937500000045 0.46336605984594093 0
vt 0.98514062500000021 0.46105142541460475 0
vt 0.078193416671291247 0.46477832592951968 0
vt 0.98116941441355809 0.32663058989657257 0
vt 0.017798290987889025 0.32898181555532624 0
vt 0.081128633339595885 0.33034954488667906 0
vt 0.42999464715270208 0.077870078069962115 0
vt 0.87996474502439803 0.32952731146528591 0
vt 0.92983025926464991 0.32812998410460792 0
vt 0.76749199710247429 0.33214922621066584 0
vt 0.82687850384963024 0.33090106693635296 0
vt 0.69515794457758873 0.33271180265692718 0
vt 0.25720440636959341 0.33349835850092779 0
vt 0.33676155572660887 0.33368756398036209 0
vt 0.21026828370391432 0.33286305819812267 0
#end 74 textures vertices 

#begin 50 normals 
vn 0.85986300000000004 -0.190583 -0.47361700000000001
vn 0.58256699999999995 -0.29660700000000001 -0.75673000000000001
vn 0.58256699999999995 0.29660700000000001 -0.75673000000000001
vn 0.85986300000000004 0.190583 -0.47361700000000001
vn 0.057074 -0.30818400000000001 -0.94961300000000004
vn 0.057074 0.30818400000000001 -0.94961300000000004
vn -0.48876599999999998 -0.30744100000000002 -0.81644799999999995
vn -0.48876599999999998 0.30744100000000002 -0.81644799999999995
vn -0.69762599999999997 -0.22545200000000001 -0.68006599999999995
vn -0.69762599999999997 0.22545200000000001 -0.68006599999999995
vn -0.82924200000000003 -0.310444 -0.46473900000000001
vn -0.82924200000000003 0.310444 -0.46473900000000001
vn -0.89570700000000003 -0.387463 -0.21813199999999999
vn -0.89570700000000003 0.387463 -0.21813199999999999
vn -0.92499100000000001 -0.369228 0.089788000000000007
vn -0.92499100000000001 0.369228 0.089788000000000007
vn -0.78328100000000001 -0.26061699999999999 0.56440199999999996
vn -0.78328100000000001 0.26061699999999999 0.56440199999999996
vn -0.43382700000000002 -0.332175 0.83752800000000005
vn -0.43382700000000002 0.332175 0.83752800000000005
vn -0.111385 -0.34464600000000001 0.93210099999999996
vn -0.111385 0.34464600000000001 0.93210099999999996
vn 0.26112000000000002 -0.33419100000000002 0.90561199999999997
vn 0.26112000000000002 0.33419100000000002 0.90561199999999997
vn 0.62817800000000001 -0.27110499999999998 0.72931100000000004
vn 0.62817800000000001 0.27110499999999998 0.72931100000000004
vn 0.91504300000000005 -0.35781099999999999 0.186192
vn 0.91504300000000005 0.35781099999999999 0.186192
vn 0.90289799999999998 -0.40892800000000001 -0.13249
vn 0.90289799999999998 0.40892800000000001 -0.13249
vn 0.90102700000000002 -0.326017 -0.28611700000000001
vn 0.90102700000000002 0.326017 -0.28611700000000001
vn -0.17260200000000001 -0.97156299999999995 -0.16209100000000001
vn 0.018870000000000001 -0.97826000000000002 -0.20652100000000001
vn 0 -1 -0
vn -0.18978600000000001 -0.980993 -0.040413999999999999
vn -0.189612 -0.97413700000000003 0.12289600000000001
vn -0.029583000000000002 -0.98112200000000005 0.19111600000000001
vn 0.17367099999999999 -0.97442099999999998 0.142624
vn 0.184503 -0.98274899999999998 -0.012762000000000001
vn 0.21298900000000001 -0.96664799999999995 -0.14222599999999999
vn 0 1 0
vn 0.018870000000000001 0.97826000000000002 -0.20652100000000001
vn -0.17260200000000001 0.97156299999999995 -0.16209100000000001
vn -0.18978600000000001 0.980993 -0.040413999999999999
vn -0.189612 0.97413799999999995 0.12289600000000001
vn -0.029583000000000002 0.98112200000000005 0.19111600000000001
vn 0.17367099999999999 0.97442099999999998 0.142624
vn 0.184503 0.98274899999999998 -0.012762000000000001
vn 0.21298900000000001 0.96664799999999995 -0.14222599999999999
#end 50 normals 

#begin 48 faces
g Deco_Rock_01
s 1
f 17/44/1 43/62/2 42/65/3 8/35/4 
f 43/62/2 16/60/5 15/64/6 42/65/3 
f 15/63/6 16/61/5 44/59/7 41/68/8 
f 44/59/7 18/58/9 14/67/10 41/68/8 
f 14/67/10 18/58/9 45/57/11 40/70/12 
f 45/57/11 19/56/13 13/69/14 40/70/12 
f 13/69/14 19/56/13 46/55/15 39/71/16 
f 46/55/15 20/47/17 12/39/18 39/71/16 
f 12/39/18 20/47/17 47/23/19 38/14/20 
f 47/23/19 21/48/21 11/38/22 38/14/20 
f 11/38/22 21/48/21 48/24/23 37/13/24 
f 48/24/23 22/49/25 10/37/26 37/13/24 
f 10/37/26 22/49/25 49/54/27 36/73/28 
f 49/54/27 23/53/29 9/72/30 36/73/28 
f 9/72/30 23/53/29 50/52/31 35/74/32 
f 50/52/31 17/44/1 8/35/4 35/74/32 
f 27/3/33 24/27/34 1/1/35 25/28/36 
f 28/4/37 25/28/36 1/1/35 26/29/38 
f 29/5/39 26/29/38 1/1/35 3/30/40 
f 30/6/41 3/30/40 1/1/35 24/27/34 
f 2/2/42 4/31/43 31/7/44 5/32/45 
f 31/7/44 4/31/43 15/42/6 41/17/8 
f 31/7/44 41/17/8 14/41/10 40/16/12 
f 5/32/45 31/7/44 40/16/12 13/40/14 
f 2/2/42 5/32/45 32/8/46 6/33/47 
f 32/8/46 5/32/45 13/40/14 39/15/16 
f 32/8/46 39/15/16 12/39/18 38/14/20 
f 6/33/47 32/8/46 38/14/20 11/38/22 
f 2/2/42 6/33/47 33/9/48 7/34/49 
f 33/9/48 6/33/47 11/38/22 37/13/24 
f 33/9/48 37/13/24 10/37/26 36/12/28 
f 7/34/49 33/9/48 36/12/28 9/36/30 
f 2/2/42 7/34/49 34/10/50 4/31/43 
f 34/10/50 7/34/49 9/36/30 35/11/32 
f 4/31/43 34/10/50 42/18/3 15/42/6 
f 34/10/50 35/11/32 8/66/4 42/18/3 
f 16/43/5 43/19/2 30/6/41 24/27/34 
f 27/3/33 44/20/7 16/43/5 24/27/34 
f 18/45/9 44/20/7 27/3/33 45/21/11 
f 19/46/13 45/21/11 27/3/33 25/28/36 
f 28/4/37 46/22/15 19/46/13 25/28/36 
f 20/47/17 46/22/15 28/4/37 47/23/19 
f 21/48/21 47/23/19 28/4/37 26/29/38 
f 29/5/39 48/24/23 21/48/21 26/29/38 
f 22/49/25 48/24/23 29/5/39 49/25/27 
f 23/50/29 49/25/27 29/5/39 3/30/40 
f 30/6/41 50/26/31 23/50/29 3/30/40 
f 17/51/1 50/26/31 30/6/41 43/19/2 
#end 48 faces
#begin 1 properties
#U3D SYM 0 0 0 1 0 0 0.0001 0
#end 1 properties
