# This file uses centimeters as units for non-parametric coordinates.

g default
v -2.888889 0.000000 5.898460
v 2.888889 0.000000 5.898460
v -2.888889 0.387081 5.898460
v 2.888889 0.387081 5.898460
v -2.888889 0.387081 -5.898460
v 2.888889 0.387081 -5.898460
v -2.888889 0.000000 -5.898460
v 2.888889 0.000000 -5.898460
v -2.888889 0.387081 5.504651
v -2.888889 0.387081 -5.504656
v 2.888889 0.387081 5.504651
v 2.888889 0.387081 -5.504656
v 2.888889 0.000000 -5.504651
v 2.888889 0.000000 5.504656
v -2.888889 0.000000 -5.504651
v -2.888889 0.000000 5.504656
v 2.499016 0.000000 -5.504651
v 2.499016 0.000000 5.504656
v 2.499016 0.000000 5.898460
v 2.499016 0.387081 5.898460
v 2.499016 0.387081 5.504651
v 2.499016 0.387081 -5.504656
v 2.499016 0.387081 -5.898460
v 2.499016 0.000000 -5.898460
v -2.499016 0.000000 -5.504651
v -2.499016 0.000000 5.504656
v -2.499016 0.000000 5.898460
v -2.499016 0.387081 5.898460
v -2.499016 0.387081 5.504651
v -2.499016 0.387081 -5.504656
v -2.499016 0.387081 -5.898460
v -2.499016 0.000000 -5.898460
v -2.888889 4.234613 -5.504656
v -2.499016 4.234613 -5.504656
v -2.499016 4.234613 -5.898460
v -2.888889 4.234613 -5.898460
v -2.888889 4.234613 5.504651
v -2.499016 4.234613 5.504651
v -2.499016 4.234613 5.898460
v -2.888889 4.234613 5.898460
v 2.499016 4.234613 5.504651
v 2.888889 4.234613 5.504651
v 2.499016 4.234613 5.898460
v 2.888889 4.234613 5.898460
v 2.499016 4.234613 -5.504656
v 2.888889 4.234613 -5.504656
v 2.499016 4.234613 -5.898460
v 2.888889 4.234613 -5.898460
vt 0.827049 0.560636
vt 0.827060 0.546172
vt 0.841421 0.546183
vt 0.841409 0.560647
vt 0.529657 0.160459
vt 0.529657 0.174923
vt 0.515047 0.174923
vt 0.515047 0.160459
vt 0.375033 0.560276
vt 0.375045 0.545812
vt 0.389405 0.545824
vt 0.389394 0.560287
vt 0.404015 0.545835
vt 0.404003 0.560299
vt 0.404185 0.331588
vt 0.404174 0.345948
vt 0.389564 0.345937
vt 0.389576 0.331576
vt 0.403992 0.574660
vt 0.389382 0.574648
vt 0.938094 0.160459
vt 0.938094 0.174923
vt 0.827220 0.346285
vt 0.812609 0.346274
vt 0.812621 0.331913
vt 0.827231 0.331925
vt 0.812439 0.560625
vt 0.812451 0.546161
vt 0.812427 0.574985
vt 0.827038 0.574996
vt 0.952704 0.174923
vt 0.952704 0.160459
vt 0.812598 0.360738
vt 0.404163 0.360412
vt 0.827208 0.360749
vt 0.841569 0.360761
vt 0.841580 0.346297
vt 0.046793 0.160459
vt 0.046793 0.174923
vt 0.032183 0.174923
vt 0.032183 0.160459
vt 0.455229 0.174923
vt 0.455229 0.160459
vt 0.469839 0.174923
vt 0.469839 0.160459
vt 0.389553 0.360401
vt 0.375192 0.360390
vt 0.375204 0.345925
vt 0.089528 0.479015
vt 0.274951 0.478731
vt 0.274973 0.493341
vt 0.089551 0.493625
vt 0.820998 0.612152
vt 0.821205 0.797575
vt 0.412769 0.798030
vt 0.412562 0.612608
vt 0.092708 0.794661
vt 0.278131 0.794376
vt 0.278154 0.808986
vt 0.092731 0.809271
vt 0.500583 0.017719
vt 0.515047 0.017719
vt 0.500583 0.160459
vt 0.529657 0.017719
vt 0.938094 0.017719
vt 0.938093 0.317663
vt 0.529657 0.317663
vt 0.952704 0.017719
vt 0.967167 0.017719
vt 0.967167 0.160459
vt 0.017719 0.017719
vt 0.032183 0.017719
vt 0.017719 0.160459
vt 0.046793 0.017719
vt 0.455229 0.317663
vt 0.046793 0.317663
vt 0.455229 0.017719
vt 0.469839 0.017719
vt 0.484303 0.017719
vt 0.484303 0.160459
vt 0.089309 0.336275
vt 0.274732 0.335991
vt 0.275192 0.636081
vt 0.089770 0.636365
vt 0.092490 0.651921
vt 0.277912 0.651636
vt 0.278372 0.951726
vt 0.092950 0.952011
vn 0.000000 0.000000 1.000000
vn 0.000000 0.000000 1.000000
vn 0.000000 0.000000 1.000000
vn 0.000000 0.000000 1.000000
vn 0.000000 1.000000 0.000000
vn 0.000000 1.000000 0.000000
vn 0.000000 1.000000 0.000000
vn 0.000000 1.000000 0.000000
vn 0.000000 0.000000 -1.000000
vn 0.000000 0.000000 -1.000000
vn 0.000000 0.000000 -1.000000
vn 0.000000 0.000000 -1.000000
vn 0.000000 -1.000000 0.000000
vn 0.000000 -1.000000 0.000000
vn 0.000000 -1.000000 0.000000
vn 0.000000 -1.000000 0.000000
vn 1.000000 0.000000 0.000000
vn 1.000000 0.000000 0.000000
vn 1.000000 0.000000 0.000000
vn 1.000000 0.000000 0.000000
vn -1.000000 0.000000 0.000000
vn -1.000000 0.000000 0.000000
vn -1.000000 0.000000 0.000000
vn -1.000000 0.000000 0.000000
vn 0.000000 1.000000 0.000000
vn 0.000000 1.000000 0.000000
vn 0.000000 1.000000 0.000000
vn 0.000000 1.000000 0.000000
vn 1.000000 0.000000 0.000000
vn 1.000000 0.000000 0.000000
vn 1.000000 0.000000 0.000000
vn 1.000000 0.000000 0.000000
vn 0.000000 -1.000000 0.000000
vn 0.000000 -1.000000 0.000000
vn 0.000000 -1.000000 0.000000
vn 0.000000 -1.000000 0.000000
vn 0.000000 -1.000000 0.000000
vn 0.000000 -1.000000 0.000000
vn 0.000000 -1.000000 0.000000
vn 0.000000 -1.000000 0.000000
vn 1.000000 0.000000 0.000000
vn 1.000000 0.000000 0.000000
vn 1.000000 0.000000 0.000000
vn 1.000000 0.000000 0.000000
vn -1.000000 0.000000 -0.000000
vn -1.000000 0.000000 -0.000000
vn -1.000000 0.000000 -0.000000
vn -1.000000 0.000000 -0.000000
vn -1.000000 0.000000 0.000000
vn -1.000000 0.000000 0.000000
vn -1.000000 0.000000 -0.000000
vn -1.000000 0.000000 -0.000000
vn 0.000000 1.000000 0.000000
vn 0.000000 1.000000 0.000000
vn 0.000000 1.000000 0.000000
vn 0.000000 1.000000 0.000000
vn 0.000000 -1.000000 0.000000
vn 0.000000 -1.000000 0.000000
vn 0.000000 -1.000000 0.000000
vn 0.000000 -1.000000 0.000000
vn 0.000000 -1.000000 0.000000
vn 0.000000 -1.000000 0.000000
vn 0.000000 -1.000000 0.000000
vn 0.000000 -1.000000 0.000000
vn 0.000000 0.000000 1.000000
vn 0.000000 0.000000 1.000000
vn 0.000000 0.000000 1.000000
vn 0.000000 0.000000 1.000000
vn 0.000000 1.000000 0.000000
vn 0.000000 1.000000 0.000000
vn 0.000000 1.000000 0.000001
vn 0.000000 1.000000 0.000000
vn 0.000000 1.000000 0.000000
vn 0.000000 1.000000 0.000000
vn 0.000000 1.000000 0.000000
vn 0.000000 1.000000 0.000000
vn 0.000000 1.000000 0.000000
vn 0.000000 1.000000 0.000000
vn 0.000000 1.000000 0.000000
vn 0.000000 1.000000 0.000000
vn 0.000000 0.000000 -1.000000
vn 0.000000 0.000000 -1.000000
vn 0.000000 0.000000 -1.000000
vn 0.000000 0.000000 -1.000000
vn 0.000000 -1.000000 0.000000
vn 0.000000 -1.000000 0.000000
vn 0.000000 -1.000000 0.000000
vn 0.000000 -1.000000 0.000000
vn 0.000000 -1.000000 0.000000
vn 0.000000 -1.000000 0.000000
vn 0.000000 -1.000000 0.000000
vn 0.000000 -1.000000 0.000000
vn 0.000000 -1.000000 0.000000
vn 0.000000 -1.000000 0.000000
vn 0.000000 -1.000000 0.000000
vn 0.000000 -1.000000 0.000000
vn 0.000000 0.000000 1.000000
vn 0.000000 0.000000 1.000000
vn 0.000000 0.000000 1.000000
vn 0.000000 0.000000 1.000000
vn 0.000000 1.000000 0.000000
vn 0.000000 1.000000 0.000000
vn 0.000000 1.000000 0.000000
vn 0.000000 1.000000 0.000001
vn 0.000000 1.000000 0.000000
vn 0.000000 1.000000 0.000000
vn 0.000000 1.000000 0.000000
vn 0.000000 1.000000 0.000000
vn 0.000000 1.000000 0.000000
vn 0.000000 1.000000 0.000000
vn 0.000000 1.000000 0.000000
vn 0.000000 1.000000 0.000000
vn 0.000000 0.000000 -1.000000
vn 0.000000 0.000000 -1.000000
vn 0.000000 0.000000 -1.000000
vn 0.000000 0.000000 -1.000000
vn 0.000000 -1.000000 0.000000
vn 0.000000 -1.000000 0.000000
vn 0.000000 -1.000000 0.000000
vn 0.000000 -1.000000 0.000000
vn 0.000000 0.000000 -1.000000
vn 0.000000 0.000000 -1.000000
vn 0.000000 0.000000 -1.000000
vn 0.000000 0.000000 -1.000000
vn -1.000000 0.000000 0.000000
vn -1.000000 0.000000 0.000000
vn -1.000000 0.000000 0.000000
vn -1.000000 0.000000 0.000000
vn -1.000000 0.000000 0.000000
vn -1.000000 0.000000 0.000000
vn -1.000000 0.000000 0.000000
vn -1.000000 0.000000 0.000000
vn 1.000000 0.000000 0.000000
vn 1.000000 0.000000 0.000000
vn 1.000000 0.000000 0.000000
vn 1.000000 0.000000 0.000000
vn -1.000000 0.000000 -0.000001
vn -1.000000 0.000000 -0.000001
vn -1.000000 0.000000 -0.000001
vn -1.000000 0.000000 -0.000001
vn 0.000000 0.000000 1.000000
vn 0.000000 0.000000 1.000000
vn 0.000000 0.000000 1.000000
vn 0.000000 0.000000 1.000000
vn 0.000000 0.000000 1.000000
vn 0.000000 0.000000 1.000000
vn 0.000000 0.000000 1.000000
vn 0.000000 0.000000 1.000000
vn 1.000000 0.000000 -0.000001
vn 1.000000 0.000000 -0.000001
vn 1.000000 0.000000 -0.000001
vn 1.000000 0.000000 -0.000001
vn -1.000000 0.000000 -0.000000
vn -1.000000 0.000000 -0.000000
vn -1.000000 0.000000 -0.000000
vn -1.000000 0.000000 -0.000000
vn 1.000000 0.000000 0.000000
vn 1.000000 0.000000 0.000000
vn 1.000000 0.000000 0.000000
vn 1.000000 0.000000 0.000000
vn 1.000000 0.000000 0.000000
vn 1.000000 0.000000 0.000000
vn 1.000000 0.000000 0.000000
vn 1.000000 0.000000 0.000000
vn 0.000000 0.000000 -1.000000
vn 0.000000 0.000000 -1.000000
vn 0.000000 0.000000 -1.000000
vn 0.000000 0.000000 -1.000000
vn 0.000000 0.000000 -1.000000
vn 0.000000 0.000000 -1.000000
vn 0.000000 0.000000 -1.000000
vn 0.000000 0.000000 -1.000000
vn 0.000000 0.000000 1.000000
vn 0.000000 0.000000 1.000000
vn 0.000000 0.000000 1.000000
vn 0.000000 0.000000 1.000000
vn 0.000000 0.000000 -1.000000
vn 0.000000 0.000000 -1.000000
vn 0.000000 0.000000 -1.000000
vn 0.000000 0.000000 -1.000000
vn 0.000000 0.000000 1.000000
vn 0.000000 0.000000 1.000000
vn 0.000000 0.000000 1.000000
vn 0.000000 0.000000 1.000000
s off
g Long_Wood_Box_LP:pCube1
f 1/1/1 27/2/2 28/3/3 3/4/4
f 33/5/5 34/6/6 35/7/7 36/8/8
f 5/9/9 31/10/10 32/11/11 7/12/12
f 7/12/13 32/11/14 25/13/15 15/14/16
f 12/15/17 13/16/18 8/17/19 6/18/20
f 7/12/21 15/14/22 10/19/23 5/20/24
f 33/5/25 37/21/26 38/22/27 34/6/28
f 2/23/29 14/24/30 11/25/31 4/26/32
f 16/27/33 26/28/34 27/2/35 1/1/36
f 15/14/37 25/13/38 26/28/39 16/27/40
f 11/25/41 14/24/42 13/16/43 12/15/44
f 9/29/45 16/27/46 1/1/47 3/30/48
f 10/19/49 15/14/50 16/27/51 9/29/52
f 39/31/53 38/22/54 37/21/55 40/32/56
f 18/33/57 17/34/58 13/16/59 14/24/60
f 19/35/61 18/33/62 14/24/63 2/23/64
f 20/36/65 19/35/66 2/23/67 4/37/68
f 42/38/69 41/39/70 43/40/71 44/41/72
f 45/42/73 41/39/74 42/38/75 46/43/76
f 47/44/77 45/42/78 46/43/79 48/45/80
f 24/46/81 23/47/82 6/48/83 8/17/84
f 17/34/85 24/46/86 8/17/87 13/16/88
f 18/33/89 26/28/90 25/13/91 17/34/92
f 19/35/93 27/2/94 26/28/95 18/33/96
f 28/3/97 27/2/98 19/35/99 20/36/100
f 41/49/101 38/50/102 39/51/103 43/52/104
f 22/53/105 30/54/106 29/55/107 21/56/108
f 47/57/109 35/58/110 34/59/111 45/60/112
f 24/46/113 32/11/114 31/10/115 23/47/116
f 25/13/117 32/11/118 24/46/119 17/34/120
f 31/61/121 5/62/122 36/8/123 35/63/124
f 5/62/125 10/64/126 33/5/127 36/8/128
f 10/64/129 9/65/130 37/21/131 33/5/132
f 29/66/133 30/67/134 34/6/135 38/22/136
f 9/65/137 3/68/138 40/32/139 37/21/140
f 3/68/141 28/69/142 39/70/143 40/32/144
f 20/71/145 4/72/146 44/41/147 43/73/148
f 4/72/149 11/74/150 42/38/151 44/41/152
f 22/75/153 21/76/154 41/39/155 45/42/156
f 11/74/157 12/77/158 46/43/159 42/38/160
f 12/77/161 6/78/162 48/45/163 46/43/164
f 6/78/165 23/79/166 47/80/167 48/45/168
f 21/81/169 29/82/170 38/50/171 41/49/172
f 28/83/173 20/84/174 43/52/175 39/51/176
f 23/85/177 31/86/178 35/58/179 47/57/180
f 30/87/181 22/88/182 45/60/183 34/59/184
