# This file uses centimeters as units for non-parametric coordinates.

g default
v -2.500000 0.000000 2.500000
v 2.500000 0.000000 2.500000
v -2.500000 2.500000 2.500000
v 2.500000 2.500000 2.500000
v -2.500000 2.500000 -2.500000
v 2.500000 2.500000 -2.500000
v -2.500000 0.000000 -2.500000
v 2.500000 0.000000 -2.500000
v -2.042935 3.174905 2.042935
v 2.042935 3.174905 2.042935
v 2.042935 3.174905 -2.042935
v -2.042935 3.174905 -2.042935
v -2.042935 3.783270 2.042935
v 2.042935 3.783270 2.042935
v 2.042935 3.783270 -2.042935
v -2.042935 3.783270 -2.042935
v -2.392455 4.049430 2.392455
v 2.392455 4.049430 2.392455
v 2.392455 4.049430 -2.392455
v -2.392455 4.049430 -2.392455
v -2.392455 4.733840 2.392455
v 2.392455 4.733840 2.392455
v 2.392455 4.733840 -2.392455
v -2.392455 4.733840 -2.392455
v -2.042935 5.190114 2.042935
v 2.042935 5.190114 2.042935
v 2.042935 5.190114 -2.042935
v -2.042935 5.190114 -2.042935
v -2.042935 21.356617 2.042935
v 2.042935 21.356617 2.042935
v 2.042935 21.356617 -2.042935
v -2.042935 21.356617 -2.042935
v -2.435274 21.974018 2.435274
v 2.435274 21.974018 2.435274
v 2.435274 21.974018 -2.435274
v -2.435274 21.974018 -2.435274
v -2.435274 22.750811 2.435274
v 2.435274 22.750811 2.435274
v 2.435274 22.750811 -2.435274
v -2.435274 22.750811 -2.435274
v -2.028682 23.224346 2.028682
v 2.028682 23.224346 2.028682
v 2.028682 23.224346 -2.028682
v -2.028682 23.224346 -2.028682
v -2.028682 23.799353 2.028682
v 2.028682 23.799353 2.028682
v 2.028682 23.799353 -2.028682
v -2.028682 23.799353 -2.028682
v -2.507025 24.306711 2.507025
v 2.507025 24.306711 2.507025
v 2.507025 24.306711 -2.507025
v -2.507025 24.306711 -2.507025
v -2.507025 26.978804 2.507025
v 2.507025 26.978804 2.507025
v 2.507025 26.978804 -2.507025
v -2.507025 26.978804 -2.507025
vt 0.140408 0.146901
vt 0.258256 0.141213
vt 0.259800 0.205652
vt 0.147553 0.210340
vt 0.550064 0.956624
vt 0.424563 0.985141
vt 0.395779 0.859203
vt 0.521109 0.831390
vt 0.490662 0.218351
vt 0.371433 0.207266
vt 0.374834 0.142999
vt 0.500190 0.154139
vt 0.385608 0.014859
vt 0.512707 0.026336
vt 0.017564 0.162403
vt 0.026592 0.226119
vt 0.259211 0.226286
vt 0.149262 0.231301
vt 0.368904 0.227677
vt 0.476250 0.236851
vt 0.042080 0.245197
vt 0.259577 0.242147
vt 0.151109 0.247153
vt 0.367769 0.243702
vt 0.474318 0.251413
vt 0.044362 0.259859
vt 0.259253 0.252730
vt 0.151727 0.257323
vt 0.366721 0.254327
vt 0.482728 0.263091
vt 0.037030 0.271538
vt 0.259632 0.270574
vt 0.153540 0.274712
vt 0.366235 0.271852
vt 0.480873 0.280442
vt 0.038591 0.289040
vt 0.259377 0.285116
vt 0.154437 0.289330
vt 0.365204 0.286052
vt 0.470605 0.293681
vt 0.049612 0.302433
vt 0.160946 0.709986
vt 0.267901 0.712586
vt 0.267570 0.731579
vt 0.158712 0.728245
vt 0.374592 0.705784
vt 0.376197 0.724753
vt 0.476796 0.686580
vt 0.490001 0.702462
vt 0.055189 0.691678
vt 0.042658 0.707357
vt 0.267965 0.751910
vt 0.157018 0.747903
vt 0.378812 0.744411
vt 0.492992 0.721730
vt 0.039410 0.726866
vt 0.267307 0.767061
vt 0.154822 0.762771
vt 0.379732 0.759098
vt 0.485590 0.738184
vt 0.047852 0.744362
vt 0.267540 0.782120
vt 0.153085 0.777795
vt 0.381762 0.774087
vt 0.488395 0.751407
vt 0.045620 0.758012
vt 0.266838 0.799957
vt 0.149750 0.795147
vt 0.383953 0.792139
vt 0.505469 0.765514
vt 0.030383 0.772260
vt 0.268761 0.868960
vt 0.141896 0.863394
vt 0.014859 0.840424
vn 0.000000 0.000000 1.000000
vn 0.000000 0.000000 1.000000
vn 0.000000 0.000000 1.000000
vn 0.000000 0.000000 1.000000
vn 0.000000 1.000000 0.000000
vn 0.000000 1.000000 0.000000
vn 0.000000 1.000000 0.000000
vn 0.000000 1.000000 0.000000
vn 0.000000 0.000000 -1.000000
vn 0.000000 0.000000 -1.000000
vn 0.000000 0.000000 -1.000000
vn 0.000000 0.000000 -1.000000
vn 0.000000 -1.000000 0.000000
vn 0.000000 -1.000000 0.000000
vn 0.000000 -1.000000 0.000000
vn 0.000000 -1.000000 0.000000
vn 1.000000 0.000000 0.000000
vn 1.000000 0.000000 0.000000
vn 1.000000 0.000000 0.000000
vn 1.000000 0.000000 0.000000
vn -1.000000 0.000000 0.000000
vn -1.000000 0.000000 0.000000
vn -1.000000 0.000000 0.000000
vn -1.000000 0.000000 0.000000
vn 0.000000 0.560740 0.827992
vn 0.000000 0.560740 0.827992
vn 0.000000 0.560740 0.827992
vn 0.000000 0.560740 0.827992
vn 0.827992 0.560740 0.000000
vn 0.827992 0.560740 0.000000
vn 0.827992 0.560740 0.000000
vn 0.827992 0.560740 0.000000
vn 0.000000 0.560740 -0.827992
vn 0.000000 0.560740 -0.827992
vn 0.000000 0.560740 -0.827992
vn 0.000000 0.560740 -0.827992
vn -0.827992 0.560740 0.000000
vn -0.827992 0.560740 0.000000
vn -0.827992 0.560740 0.000000
vn -0.827992 0.560740 0.000000
vn 0.000000 0.000000 1.000000
vn 0.000000 0.000000 1.000000
vn 0.000000 0.000000 1.000000
vn 0.000000 0.000000 1.000000
vn 1.000000 0.000000 0.000000
vn 1.000000 0.000000 0.000000
vn 1.000000 0.000000 0.000000
vn 1.000000 0.000000 0.000000
vn 0.000000 0.000000 -1.000000
vn 0.000000 0.000000 -1.000000
vn 0.000000 0.000000 -1.000000
vn 0.000000 0.000000 -1.000000
vn -1.000000 0.000000 0.000000
vn -1.000000 0.000000 0.000000
vn -1.000000 0.000000 0.000000
vn -1.000000 0.000000 0.000000
vn 0.000000 -0.795587 0.605839
vn 0.000000 -0.795587 0.605839
vn 0.000000 -0.795587 0.605839
vn 0.000000 -0.795587 0.605839
vn 0.605839 -0.795587 0.000000
vn 0.605839 -0.795587 0.000000
vn 0.605839 -0.795587 0.000000
vn 0.605839 -0.795587 0.000000
vn 0.000000 -0.795587 -0.605839
vn 0.000000 -0.795587 -0.605839
vn 0.000000 -0.795587 -0.605839
vn 0.000000 -0.795587 -0.605839
vn -0.605839 -0.795587 0.000000
vn -0.605839 -0.795587 0.000000
vn -0.605839 -0.795587 0.000000
vn -0.605839 -0.795587 0.000000
vn 0.000000 0.000000 1.000000
vn 0.000000 0.000000 1.000000
vn 0.000000 0.000000 1.000000
vn 0.000000 0.000000 1.000000
vn 1.000000 0.000000 0.000000
vn 1.000000 0.000000 0.000000
vn 1.000000 0.000000 0.000000
vn 1.000000 0.000000 0.000000
vn 0.000000 0.000000 -1.000000
vn 0.000000 0.000000 -1.000000
vn 0.000000 0.000000 -1.000000
vn 0.000000 0.000000 -1.000000
vn -1.000000 0.000000 0.000000
vn -1.000000 0.000000 0.000000
vn -1.000000 0.000000 0.000000
vn -1.000000 0.000000 0.000000
vn 0.000000 0.608115 0.793849
vn 0.000000 0.608115 0.793849
vn 0.000000 0.608115 0.793849
vn 0.000000 0.608115 0.793849
vn 0.793849 0.608114 0.000000
vn 0.793849 0.608114 0.000000
vn 0.793849 0.608115 0.000000
vn 0.793849 0.608115 0.000000
vn 0.000000 0.608115 -0.793849
vn 0.000000 0.608115 -0.793849
vn 0.000000 0.608115 -0.793849
vn 0.000000 0.608115 -0.793849
vn -0.793849 0.608114 0.000000
vn -0.793849 0.608114 0.000000
vn -0.793849 0.608115 0.000000
vn -0.793849 0.608115 0.000000
vn 0.000000 0.000000 1.000000
vn 0.000000 0.000000 1.000000
vn 0.026086 0.018133 0.999495
vn 0.026086 0.018133 0.999495
vn 0.999904 -0.009843 -0.009736
vn 0.999904 -0.009843 -0.009736
vn 0.999780 0.014908 0.014746
vn 0.999780 0.014908 0.014746
vn 0.012140 -0.012273 -0.999851
vn 0.012140 -0.012273 -0.999851
vn 0.000000 0.000000 -1.000000
vn 0.000000 0.000000 -1.000000
vn -1.000000 0.000000 0.000000
vn -1.000000 0.000000 0.000000
vn -1.000000 0.000000 0.000000
vn -1.000000 0.000000 0.000000
vn 0.000000 -0.536339 0.844003
vn 0.000000 -0.536339 0.844003
vn 0.000000 -0.536339 0.844003
vn 0.000000 -0.536339 0.844003
vn 0.844003 -0.536338 0.000000
vn 0.844003 -0.536338 0.000000
vn 0.844003 -0.536338 0.000000
vn 0.844003 -0.536338 0.000000
vn 0.000000 -0.536339 -0.844003
vn 0.000000 -0.536339 -0.844003
vn 0.000000 -0.536339 -0.844003
vn 0.000000 -0.536339 -0.844003
vn -0.844003 -0.536338 0.000000
vn -0.844003 -0.536338 0.000000
vn -0.844003 -0.536338 0.000000
vn -0.844003 -0.536338 0.000000
vn 0.000000 0.000000 1.000000
vn 0.000000 0.000000 1.000000
vn 0.000000 0.000000 1.000000
vn 0.000000 0.000000 1.000000
vn 1.000000 0.000000 0.000000
vn 1.000000 0.000000 0.000000
vn 1.000000 0.000000 0.000000
vn 1.000000 0.000000 0.000000
vn 0.000000 0.000000 -1.000000
vn 0.000000 0.000000 -1.000000
vn 0.000000 0.000000 -1.000000
vn 0.000000 0.000000 -1.000000
vn -1.000000 0.000000 0.000000
vn -1.000000 0.000000 0.000000
vn -1.000000 0.000000 0.000000
vn -1.000000 0.000000 0.000000
vn 0.000000 0.651442 0.758698
vn 0.000000 0.651442 0.758698
vn 0.000000 0.651442 0.758698
vn 0.000000 0.651442 0.758698
vn 0.758699 0.651441 0.000000
vn 0.758699 0.651441 0.000000
vn 0.758699 0.651441 0.000000
vn 0.758699 0.651441 0.000000
vn 0.000000 0.651442 -0.758698
vn 0.000000 0.651442 -0.758698
vn 0.000000 0.651442 -0.758698
vn 0.000000 0.651442 -0.758698
vn -0.758699 0.651441 0.000000
vn -0.758699 0.651441 0.000000
vn -0.758699 0.651441 0.000000
vn -0.758699 0.651441 0.000000
vn 0.000000 0.000000 1.000000
vn 0.000000 0.000000 1.000000
vn 0.000000 0.000000 1.000000
vn 0.000000 0.000000 1.000000
vn 1.000000 0.000000 0.000000
vn 1.000000 0.000000 0.000000
vn 1.000000 0.000000 0.000000
vn 1.000000 0.000000 0.000000
vn 0.000000 0.000000 -1.000000
vn 0.000000 0.000000 -1.000000
vn 0.000000 0.000000 -1.000000
vn 0.000000 0.000000 -1.000000
vn -1.000000 0.000000 0.000000
vn -1.000000 0.000000 0.000000
vn -1.000000 0.000000 0.000000
vn -1.000000 0.000000 0.000000
vn 0.000000 -0.685995 0.727606
vn 0.000000 -0.685995 0.727606
vn 0.000000 -0.685995 0.727606
vn 0.000000 -0.685995 0.727606
vn 0.727606 -0.685995 0.000000
vn 0.727606 -0.685995 0.000000
vn 0.727606 -0.685995 0.000000
vn 0.727606 -0.685995 0.000000
vn 0.000000 -0.685995 -0.727606
vn 0.000000 -0.685995 -0.727606
vn 0.000000 -0.685995 -0.727606
vn 0.000000 -0.685995 -0.727606
vn -0.727606 -0.685995 0.000000
vn -0.727606 -0.685995 0.000000
vn -0.727606 -0.685995 0.000000
vn -0.727606 -0.685995 0.000000
vn 0.000000 0.000000 1.000000
vn 0.000000 0.000000 1.000000
vn 0.000000 0.000000 1.000000
vn 0.000000 0.000000 1.000000
vn 1.000000 0.000000 0.000000
vn 1.000000 0.000000 0.000000
vn 1.000000 0.000000 0.000000
vn 1.000000 0.000000 0.000000
vn 0.000000 0.000000 -1.000000
vn 0.000000 0.000000 -1.000000
vn 0.000000 0.000000 -1.000000
vn 0.000000 0.000000 -1.000000
vn -1.000000 0.000000 0.000000
vn -1.000000 0.000000 0.000000
vn -1.000000 0.000000 0.000000
vn -1.000000 0.000000 0.000000
s off
g Pillar_01:pCube1
f 1/1/1 2/2/2 4/3/3 3/4/4
f 53/5/5 54/6/6 55/7/7 56/8/8
f 5/9/9 6/10/10 8/11/11 7/12/12
f 7/12/13 8/11/14 2/13/15 1/14/16
f 2/2/17 8/11/18 6/10/19 4/3/20
f 7/15/21 1/1/22 3/4/23 5/16/24
f 3/4/25 4/3/26 10/17/27 9/18/28
f 4/3/29 6/10/30 11/19/31 10/17/32
f 6/10/33 5/9/34 12/20/35 11/19/36
f 5/16/37 3/4/38 9/18/39 12/21/40
f 9/18/41 10/17/42 14/22/43 13/23/44
f 10/17/45 11/19/46 15/24/47 14/22/48
f 11/19/49 12/20/50 16/25/51 15/24/52
f 12/21/53 9/18/54 13/23/55 16/26/56
f 13/23/57 14/22/58 18/27/59 17/28/60
f 14/22/61 15/24/62 19/29/63 18/27/64
f 15/24/65 16/25/66 20/30/67 19/29/68
f 16/26/69 13/23/70 17/28/71 20/31/72
f 17/28/73 18/27/74 22/32/75 21/33/76
f 18/27/77 19/29/78 23/34/79 22/32/80
f 19/29/81 20/30/82 24/35/83 23/34/84
f 20/31/85 17/28/86 21/33/87 24/36/88
f 21/33/89 22/32/90 26/37/91 25/38/92
f 22/32/93 23/34/94 27/39/95 26/37/96
f 23/34/97 24/35/98 28/40/99 27/39/100
f 24/36/101 21/33/102 25/38/103 28/41/104
f 30/43/105 29/42/106 25/38/107 26/37/108
f 31/46/109 30/43/110 26/37/111 27/39/112
f 32/48/113 31/46/114 27/39/115 28/40/116
f 29/42/117 32/50/118 28/41/119 25/38/120
f 29/42/121 30/43/122 34/44/123 33/45/124
f 30/43/125 31/46/126 35/47/127 34/44/128
f 31/46/129 32/48/130 36/49/131 35/47/132
f 32/50/133 29/42/134 33/45/135 36/51/136
f 33/45/137 34/44/138 38/52/139 37/53/140
f 34/44/141 35/47/142 39/54/143 38/52/144
f 35/47/145 36/49/146 40/55/147 39/54/148
f 36/51/149 33/45/150 37/53/151 40/56/152
f 37/53/153 38/52/154 42/57/155 41/58/156
f 38/52/157 39/54/158 43/59/159 42/57/160
f 39/54/161 40/55/162 44/60/163 43/59/164
f 40/56/165 37/53/166 41/58/167 44/61/168
f 41/58/169 42/57/170 46/62/171 45/63/172
f 42/57/173 43/59/174 47/64/175 46/62/176
f 43/59/177 44/60/178 48/65/179 47/64/180
f 44/61/181 41/58/182 45/63/183 48/66/184
f 45/63/185 46/62/186 50/67/187 49/68/188
f 46/62/189 47/64/190 51/69/191 50/67/192
f 47/64/193 48/65/194 52/70/195 51/69/196
f 48/66/197 45/63/198 49/68/199 52/71/200
f 49/68/201 50/67/202 54/72/203 53/73/204
f 50/67/205 51/69/206 55/7/207 54/72/208
f 51/69/209 52/70/210 56/8/211 55/7/212
f 52/71/213 49/68/214 53/73/215 56/74/216
